<?xml version="1.0"?>
<svg version="1.1" xmlns="http://www.w3.org/2000/svg" width="520px" height="400px" style=""><path fill="#0c94f5" d="M5.85,224.3l0-2.7l4.5-0.9l0-24.3l-5.85,0l-1.125,4.5l-2.925,0l0-8.1l24.525,0l0,8.1l-2.925,0l-1.125-4.5l-5.85,0l0,24.3l4.5,0.9l0,2.7l-13.725,0z M37.737,200.45l0.405,3.285c1.125-1.26,3.735-3.735,6.795-3.735c2.25,0,4.05,0.675,4.05,0.675l-0.225,6.525l-2.925,0l-0.675-3.375c-3.375,0-5.535,2.205-6.525,3.51l0,13.365l4.5,1.125l0,2.475l-12.825,0l0-2.475l3.825-1.125l0-16.65l-3.825-0.9l0-2.475z M56.124,207.425l-0.225-5.625s4.95-1.8,8.775-1.8c5.22,0,8.325,1.8,8.325,6.975l0,13.725l3.6,0.9l0,2.475l-6.975,0.225l-0.945-3.15c-1.53,1.53-4.23,3.6-7.38,3.6c-4.275,0-6.75-2.475-6.75-6.75c0-5.175,4.05-6.975,10.35-6.975l3.6,0l0-3.6c0-2.7-1.575-4.05-4.275-4.05s-4.545,0.675-4.545,0.675l-0.63,3.375l-2.925,0z M68.499,213.95l-3.15,0c-4.5,0-6.21,1.125-6.21,3.825c0,2.025,1.26,3.375,3.285,3.375c3.375,0,6.075-3.6,6.075-3.6l0-3.6z M99.036,207.875l-0.675-3.825s-1.8-0.45-4.05-0.45c-4.275,0-6.75,2.7-6.75,8.325c0,6.075,2.7,9.225,6.975,9.225s6.975-2.7,6.975-2.7l1.575,2.7s-4.05,3.6-9,3.6c-7.425,0-11.25-4.725-11.25-12.375c0-7.2,4.5-12.375,11.7-12.375c4.05,0,7.65,1.8,7.65,1.8l-0.225,6.075l-2.925,0z M120.348,209.45l3.375-5.67l-2.025-0.63l0-2.475l9.9-0.225l0,2.7l-3.195,0.54l-0.045,0l-4.635,6.885l5.805,10.125l0.045,0l3.375,1.125l0,2.475l-6.075,0l-6.435-11.475l-3.915,0l0,7.875l2.925,1.125l0,2.475l-11.25,0l0-2.475l3.825-1.125l0-27.45l-3.825-0.9l0-2.475l8.325-0.225l0,19.8l3.825,0z M140.985,193.025c0-2.025,1.35-3.15,2.925-3.15c1.8,0,2.925,0.9,2.925,3.15c0,2.025-1.575,3.15-2.925,3.15c-1.8,0-2.925-1.125-2.925-3.15z M149.76,221.825l0,2.475l-11.7,0l0-2.475l3.825-1.125l0-16.65l-3.825-0.9l0-2.475l8.325-0.225l0,20.25z M160.497,200.675l0-2.7c0-5.4,2.925-8.775,8.325-8.775c4.275,0,6.75,1.575,6.75,1.575l0,5.625l-3.15,0l-0.675-3.6s-1.125-0.225-2.7-0.225c-3.15,0-4.05,1.8-4.05,4.5l0,3.6l5.94,0l-0.135,3.375l-5.805,0l0,16.65l4.5,1.125l0,2.475l-12.825,0l0-2.475l3.825-1.125l0-16.65l-4.05,0l0-2.925z M184.059,203.6l5.4,15.75l4.95-15.525l-3.15-0.675l0-2.475l10.665-0.225l0,2.7l-2.925,0.45l-6.39,17.82c-2.385,6.255-4.725,13.68-12.15,13.68c-1.125,0-2.88-0.225-2.88-0.225l0.405-3.15l2.25,0c3.15,0,5.175-2.97,7.155-7.335l-8.055-20.565l-2.7-0.675l0-2.475l10.575-0.225l0,2.7z"/><path fill="#" d=""/></svg>
