<?xml version="1.0"?>
<svg version="1.1" xmlns="http://www.w3.org/2000/svg" width="520px" height="200px" style=""><path fill="#0c94f5" d="M14.3,159.4l0-6.6l11-2.2l0-59.4l-14.3,0l-2.75,11l-7.15,0l0-19.8l59.95,0l0,19.8l-7.15,0l-2.75-11l-14.3,0l0,59.4l11,2.2l0,6.6l-33.55,0z M92.246,101.1l0.99,8.03c2.75-3.08,9.13-9.13,16.61-9.13c5.5,0,9.9,1.65,9.9,1.65l-0.55,15.95l-7.15,0l-1.65-8.25c-8.25,0-13.53,5.39-15.95,8.58l0,32.67l11,2.75l0,6.05l-31.35,0l0-6.05l9.35-2.75l0-40.7l-9.35-2.2l0-6.05z M137.192,118.15l-0.55-13.75s12.1-4.4,21.45-4.4c12.76,0,20.35,4.4,20.35,17.05l0,33.55l8.8,2.2l0,6.05l-17.05,0.55l-2.31-7.7c-3.74,3.74-10.34,8.8-18.04,8.8c-10.45,0-16.5-6.05-16.5-16.5c0-12.65,9.9-17.05,25.3-17.05l8.8,0l0-8.8c0-6.6-3.85-9.9-10.45-9.9s-11.11,1.65-11.11,1.65l-1.54,8.25l-7.15,0z M167.442,134.1l-7.7,0c-11,0-15.18,2.75-15.18,9.35c0,4.95,3.08,8.25,8.03,8.25c8.25,0,14.85-8.8,14.85-8.8l0-8.8z M242.088,119.25l-1.65-9.35s-4.4-1.1-9.9-1.1c-10.45,0-16.5,6.6-16.5,20.35c0,14.85,6.6,22.55,17.05,22.55s17.05-6.6,17.05-6.6l3.85,6.6s-9.9,8.8-22,8.8c-18.15,0-27.5-11.55-27.5-30.25c0-17.6,11-30.25,28.6-30.25c9.9,0,18.7,4.4,18.7,4.4l-0.55,14.85l-7.15,0z M294.184,123.1l8.25-13.86l-4.95-1.54l0-6.05l24.2-0.55l0,6.6l-7.81,1.32l-0.11,0l-11.33,16.83l14.19,24.75l0.11,0l8.25,2.75l0,6.05l-14.85,0l-15.73-28.05l-9.57,0l0,19.25l7.15,2.75l0,6.05l-27.5,0l0-6.05l9.35-2.75l0-67.1l-9.35-2.2l0-6.05l20.35-0.55l0,48.4l9.35,0z M344.63,82.95c0-4.95,3.3-7.7,7.15-7.7c4.4,0,7.15,2.2,7.15,7.7c0,4.95-3.85,7.7-7.15,7.7c-4.4,0-7.15-2.75-7.15-7.7z M366.08,153.35l0,6.05l-28.6,0l0-6.05l9.35-2.75l0-40.7l-9.35-2.2l0-6.05l20.35-0.55l0,49.5z M392.326,101.65l0-6.6c0-13.2,7.15-21.45,20.35-21.45c10.45,0,16.5,3.85,16.5,3.85l0,13.75l-7.7,0l-1.65-8.8s-2.75-0.55-6.6-0.55c-7.7,0-9.9,4.4-9.9,11l0,8.8l14.52,0l-0.33,8.25l-14.19,0l0,40.7l11,2.75l0,6.05l-31.35,0l0-6.05l9.35-2.75l0-40.7l-9.9,0l0-7.15z M449.922,108.8l13.2,38.5l12.1-37.95l-7.7-1.65l0-6.05l26.07-0.55l0,6.6l-7.15,1.1l-15.62,43.56c-5.83,15.29-11.55,33.44-29.7,33.44c-2.75,0-7.04-0.55-7.04-0.55l0.99-7.7l5.5,0c7.7,0,12.65-7.26,17.49-17.93l-19.69-50.27l-6.6-1.65l0-6.05l25.85-0.55l0,6.6z"/><path fill="#" d=""/></svg>
